<svg xmlns="http://www.w3.org/2000/svg" viewBox="0 0 100 138"><path fill="#2442C9" d="M0,0 H100 V138.0 L50.0,112.0 L0,138.0 Z"/><path fill="#FFFFFF" d="M51.3 84.3Q42.1 84.3 36.1 80.5Q30.1 76.8 27.2 70.2Q24.2 63.7 24.2 55.4Q24.2 45.7 27.9 39.1Q31.5 32.5 38.0 29.1Q44.5 25.7 53.0 25.7Q57.6 25.7 60.3 26.4Q62.9 27.2 64.5 27.9Q66.0 28.6 67.2 28.6Q68.5 28.6 69.0 27.7Q69.6 26.7 70.1 25.7H73.3V46.3H69.6Q68.0 38.1 63.8 34.0Q59.6 30.0 53.0 30.0Q44.6 30.0 40.3 36.1Q36.0 42.3 36.0 53.6Q36.0 61.9 38.2 67.1Q40.4 72.2 44.7 74.6Q48.9 77.0 54.9 77.0Q61.1 77.0 65.3 74.8Q69.5 72.6 73.2 68.4L75.7 70.7Q73.0 74.5 69.8 77.6Q66.6 80.7 62.2 82.5Q57.8 84.3 51.3 84.3Z"/></svg>